<svg width="18" height="18" viewBox="0 0 18 18" fill="none" xmlns="http://www.w3.org/2000/svg">
<path d="M2.53527 17.7273C3.78492 17.7273 4.79796 16.7143 4.79796 15.4646C4.79796 14.215 3.78492 13.2019 2.53527 13.2019C1.28562 13.2019 0.272583 14.215 0.272583 15.4646C0.272583 16.7143 1.28562 17.7273 2.53527 17.7273Z" fill="white"/>
<path d="M9.0006 17.7273C10.2503 17.7273 11.2633 16.7143 11.2633 15.4646C11.2633 14.215 10.2503 13.2019 9.0006 13.2019C7.75095 13.2019 6.73792 14.215 6.73792 15.4646C6.73792 16.7143 7.75095 17.7273 9.0006 17.7273Z" fill="white"/>
<path d="M15.4649 17.7273C16.7145 17.7273 17.7276 16.7143 17.7276 15.4646C17.7276 14.215 16.7145 13.2019 15.4649 13.2019C14.2153 13.2019 13.2022 14.215 13.2022 15.4646C13.2022 16.7143 14.2153 17.7273 15.4649 17.7273Z" fill="white"/>
<path d="M2.53527 11.2625C3.78492 11.2625 4.79796 10.2495 4.79796 8.99981C4.79796 7.75016 3.78492 6.73712 2.53527 6.73712C1.28562 6.73712 0.272583 7.75016 0.272583 8.99981C0.272583 10.2495 1.28562 11.2625 2.53527 11.2625Z" fill="white"/>
<path d="M9.0006 11.2625C10.2503 11.2625 11.2633 10.2495 11.2633 8.99981C11.2633 7.75016 10.2503 6.73712 9.0006 6.73712C7.75095 6.73712 6.73792 7.75016 6.73792 8.99981C6.73792 10.2495 7.75095 11.2625 9.0006 11.2625Z" fill="white"/>
<path d="M15.4649 11.2625C16.7145 11.2625 17.7276 10.2495 17.7276 8.99981C17.7276 7.75016 16.7145 6.73712 15.4649 6.73712C14.2153 6.73712 13.2022 7.75016 13.2022 8.99981C13.2022 10.2495 14.2153 11.2625 15.4649 11.2625Z" fill="white"/>
<path d="M2.53539 4.79845C3.78504 4.79845 4.79808 3.78541 4.79808 2.53576C4.79808 1.28611 3.78504 0.273071 2.53539 0.273071C1.28574 0.273071 0.272705 1.28611 0.272705 2.53576C0.272705 3.78541 1.28574 4.79845 2.53539 4.79845Z" fill="white"/>
<path d="M9.0006 4.79771C10.2503 4.79771 11.2633 3.78467 11.2633 2.53503C11.2633 1.28538 10.2503 0.272339 9.0006 0.272339C7.75095 0.272339 6.73792 1.28538 6.73792 2.53503C6.73792 3.78467 7.75095 4.79771 9.0006 4.79771Z" fill="white"/>
<path d="M15.4649 4.79771C16.7145 4.79771 17.7276 3.78467 17.7276 2.53503C17.7276 1.28538 16.7145 0.272339 15.4649 0.272339C14.2153 0.272339 13.2022 1.28538 13.2022 2.53503C13.2022 3.78467 14.2153 4.79771 15.4649 4.79771Z" fill="white"/>
</svg>
