<svg width="120" height="16" viewBox="0 0 120 16" fill="none" xmlns="http://www.w3.org/2000/svg">
  <path fill-rule="evenodd" clip-rule="evenodd" d="M37.1636 14.3752C34.7414 14.3752 33.295 12.3898 33.295 9.06489C33.295 5.7395 34.7414 3.75407 37.1636 3.75407C39.5755 3.75407 41.0155 5.7395 41.0155 9.06489C41.0155 12.3898 39.5755 14.3752 37.1636 14.3752ZM37.1636 2.50531C33.6747 2.50531 30.8364 5.44771 30.8364 9.06489C30.8364 12.6816 33.6747 15.624 37.1636 15.624C40.6431 15.624 43.4741 12.6816 43.4741 9.06489C43.4741 5.44771 40.6431 2.50531 37.1636 2.50531Z" fill="#FEFEFE"/>
  <path fill-rule="evenodd" clip-rule="evenodd" d="M44.0149 3.91998H48.6403V15.4582H50.9666V3.91998H55.6082V2.67148H44.0149V3.91998Z" fill="#FEFEFE"/>
  <mask id="mask0" mask-type="alpha" maskUnits="userSpaceOnUse" x="0" y="0" width="120" height="16">
    <path fill-rule="evenodd" clip-rule="evenodd" d="M0 15.624H119.944V0.375946H0V15.624Z" fill="white"/>
  </mask>
  <g mask="url(#mask0)">
    <path fill-rule="evenodd" clip-rule="evenodd" d="M57.9564 15.4581H60.2988V2.67136H57.9564V15.4581Z" fill="#FEFEFE"/>
    <path fill-rule="evenodd" clip-rule="evenodd" d="M72.8968 11.8769C72.1035 14.022 70.2447 14.3421 69.2074 14.3421C66.7743 14.3421 65.3219 12.3695 65.3219 9.06486C65.3219 5.76018 66.7743 3.78713 69.2074 3.78713C70.9566 3.78713 72.289 4.6961 72.8624 6.28136L73.0883 6.90637L74.2208 6.33997L74.0392 5.84406C73.2621 3.72221 71.4646 2.50528 69.1071 2.50528C65.6061 2.50528 62.8635 5.39387 62.8635 9.08153C62.8635 12.8114 65.5477 15.6242 69.1071 15.6242C71.477 15.6242 73.2861 14.4206 74.071 12.322L74.2575 11.8241L73.1257 11.2585L72.8968 11.8769Z" fill="#FEFEFE"/>
    <path fill-rule="evenodd" clip-rule="evenodd" d="M91.5133 3.91998H93.7736C95.7414 3.91998 96.5809 4.65539 96.5809 6.3791C96.5809 8.03384 95.7199 8.77203 93.79 8.77203H91.5133V3.91998ZM98.8406 13.1463L98.1608 11.2069L98.158 11.1991C97.8988 10.4909 97.4017 9.91569 96.7059 9.4996C97.9243 8.96554 98.9899 7.96613 98.9899 6.36243C98.9899 4.0511 97.1018 2.67148 93.9393 2.67148H89.1704V15.4582H91.5133V10.0203H93.5584C95.055 10.0203 95.5393 10.6084 95.9523 11.7665L96.6112 13.6117C96.8421 14.3044 97.0768 14.8102 97.3494 15.2038L97.5259 15.4582H100.676L99.5622 14.4322C99.286 14.1778 99.0372 13.736 98.8406 13.1463Z" fill="#FEFEFE"/>
    <path fill-rule="evenodd" clip-rule="evenodd" d="M102.399 15.4581H104.742V2.67136H102.399V15.4581Z" fill="#FEFEFE"/>
    <path fill-rule="evenodd" clip-rule="evenodd" d="M113.633 3.75407C116.045 3.75407 117.485 5.7395 117.485 9.06489C117.485 12.3898 116.045 14.3752 113.633 14.3752C111.211 14.3752 109.765 12.3898 109.765 9.06489C109.765 5.7395 111.211 3.75407 113.633 3.75407ZM113.633 2.50531C110.144 2.50531 107.306 5.44771 107.306 9.06489C107.306 12.6816 110.144 15.624 113.633 15.624C117.113 15.624 119.943 12.6816 119.943 9.06489C119.943 5.44771 117.113 2.50531 113.633 2.50531Z" fill="#FEFEFE"/>
    <path fill-rule="evenodd" clip-rule="evenodd" d="M6.32716 14.3752C3.90493 14.3752 2.45861 12.3898 2.45861 9.06489C2.45861 5.7395 3.90493 3.75407 6.32716 3.75407C8.73903 3.75407 10.179 5.7395 10.179 9.06489C10.179 12.3898 8.73903 14.3752 6.32716 14.3752ZM6.32716 2.50531C2.83832 2.50531 0 5.44771 0 9.06489C0 12.6816 2.83832 15.624 6.32716 15.624C9.80665 15.624 12.6376 12.6816 12.6376 9.06489C12.6376 5.44771 9.80665 2.50531 6.32716 2.50531Z" fill="#FEFEFE"/>
    <path fill-rule="evenodd" clip-rule="evenodd" d="M18.3689 14.3249V8.37211H22.5009C23.807 8.37211 25.9983 8.75636 25.9983 11.3284C25.9983 13.4285 25.0482 14.3249 22.8215 14.3249H18.3689ZM22.5411 7.10971H18.3689V1.63822H22.3006C24.5131 1.63822 25.4572 2.47443 25.4572 4.43409C25.4572 6.30963 24.5849 7.10971 22.5411 7.10971ZM25.8783 7.68546C27.1395 7.03291 28.0623 5.91097 28.0623 4.43409C28.0623 1.85523 26.0279 0.376068 22.4809 0.376068H15.7839V15.587H23.0218C26.5016 15.587 28.6633 13.9401 28.6633 11.2885C28.6633 9.50289 27.4505 8.31502 25.8783 7.68546Z" fill="#FEFEFE"/>
    <path fill-rule="evenodd" clip-rule="evenodd" d="M78.7105 9.86607L80.4244 5.91415L82.2148 9.86607H78.7105ZM82.7241 0.641479H81.3515L74.9021 15.4581H76.2739L78.1643 11.1148H82.784L84.7568 15.4581H87.2482L81.6491 3.11095L82.7241 0.641479Z" fill="#FEFEFE"/>
  </g>
</svg>
