<svg width="264" height="59" viewBox="0 0 264 59" fill="none" xmlns="http://www.w3.org/2000/svg">
<g clip-path="url(#clip0)">
<path fill-rule="evenodd" clip-rule="evenodd" d="M242.299 29.2361C244.443 26.5937 247.28 25.7753 249.96 26.3016C251.074 25.3771 252.394 24.3203 254.01 23.036C254.122 22.9491 254.229 22.8603 254.339 22.7719L254.331 22.7688C249.01 20.2829 243.431 21.626 240.238 25.0641C240.096 25.2256 239.95 25.3855 239.813 25.5547C239.655 25.7426 239.486 25.9444 239.31 26.1301C239.501 26.3546 240.681 27.7062 242.25 29.2984C242.266 29.2776 242.285 29.2546 242.299 29.2361Z" fill="#0F73AB"/>
<path fill-rule="evenodd" clip-rule="evenodd" d="M239.327 26.1188C239.303 26.145 239.342 26.1008 239.323 26.1269C235.213 20.9616 230.72 12.5492 237.416 5.22083C232.394 9.46431 228.197 16.5344 226.865 22.8913C223.842 37.2801 231.245 45.5657 237.805 49.6219C231.183 44.0692 233.109 33.7124 239.327 26.1188Z" fill="#8CC740"/>
<path fill-rule="evenodd" clip-rule="evenodd" d="M239.323 26.1271L239.263 26.199C239.284 26.1705 239.303 26.1451 239.327 26.119C245.971 18.211 257.718 9.12123 254.107 3.92056C251.794 0.600423 246.652 0.43705 243.618 1.40576C243.506 1.45227 243.389 1.49994 243.274 1.55222C241.113 2.51363 239.14 3.71106 237.416 5.22063C230.72 12.5494 235.213 20.9614 239.323 26.1271Z" fill="#D6DE24"/>
<path fill-rule="evenodd" clip-rule="evenodd" d="M254.339 22.7718C254.228 22.8602 254.122 22.949 254.01 23.0359C252.394 24.3202 251.074 25.3769 249.96 26.3018C264.546 29.1284 262.751 51.3364 246.684 52.0948C244.582 52.1982 242.461 51.7546 241.148 51.3041C241.334 51.3772 241.609 51.4744 241.773 51.5321C251.466 54.7907 260.303 49.8676 262.517 41.5355C264.591 33.7255 261.627 26.1857 254.339 22.7718Z" fill="#F25921"/>
<path fill-rule="evenodd" clip-rule="evenodd" d="M243.618 1.40591C246.652 0.436821 251.794 0.600195 254.107 3.92072C257.559 8.88612 246.979 17.41 240.238 25.0643C243.432 21.6262 249.01 20.2827 254.328 22.7687C254.328 22.7687 254.332 22.7687 254.339 22.7717C273.623 7.27238 256.658 -4.09343 243.618 1.40591Z" fill="#3D9CD6"/>
<path fill-rule="evenodd" clip-rule="evenodd" d="M239.358 38.1707C239.35 38.1595 239.342 38.148 239.342 38.148C236.747 33.5143 237.203 29.2213 239.352 26.1502C239.366 26.1679 239.387 26.191 239.411 26.219C239.366 26.1625 239.333 26.1271 239.327 26.1241L239.323 26.1271C239.323 26.1271 239.327 26.1241 239.327 26.1187L239.323 26.1241L239.319 26.1271C233.114 33.7123 231.188 44.0502 237.79 49.6076C237.88 49.6653 237.974 49.7268 238.064 49.7894C238.558 50.0843 239.593 50.6801 240.656 51.1091L240.659 51.1126C235.249 48.8834 236.883 42.5387 239.358 38.1707Z" fill="#3D9CD6"/>
<path fill-rule="evenodd" clip-rule="evenodd" d="M251.682 37.1593C251.93 36.3947 252.087 35.2753 252.055 34.6161C252.114 35.4133 251.375 38.9103 248.343 39.8402C245.103 40.8358 241.74 38.4463 241.068 35.4502C240.427 36.4524 239.779 37.4561 239.358 38.1707C242.513 42.4584 249.625 43.143 251.682 37.1593Z" fill="#F25921"/>
<path fill-rule="evenodd" clip-rule="evenodd" d="M241.066 35.4524C240.545 33.3589 240.908 30.9917 242.251 29.2984C240.736 27.7654 239.601 26.4534 239.35 26.1593C237.203 29.2273 236.747 33.5207 239.34 38.1425C239.34 38.1425 239.35 38.1594 239.358 38.1705C239.779 37.4563 240.427 36.4553 241.066 35.4524Z" fill="#0F73AB"/>
<path fill-rule="evenodd" clip-rule="evenodd" d="M251.372 26.6463C251.267 26.6201 251.16 26.5886 251.051 26.5578C250.969 26.5371 250.885 26.5109 250.8 26.491C250.707 26.4617 250.611 26.4414 250.522 26.421C250.336 26.3806 250.152 26.3364 249.96 26.3018L249.883 26.331C249.883 26.331 247.293 28.4303 244.987 30.8132C246.035 29.9833 247.44 29.6377 248.824 30.0141C250.032 30.3377 250.977 31.1377 251.53 32.1548C251.566 32.219 251.596 32.2844 251.626 32.3451C251.644 32.3847 251.667 32.4193 251.682 32.4574C251.723 32.5477 251.755 32.638 251.794 32.7288C252.001 33.3038 252.1 33.9231 252.06 34.557C252.06 34.6281 252.06 34.7019 252.055 34.775C252.06 35.4469 251.909 36.4525 251.682 37.1594C249.625 43.1432 242.513 42.4585 239.358 38.1704C236.883 42.5389 235.249 48.8835 240.667 51.1166C240.778 51.1654 240.964 51.23 241.195 51.3157C242.513 51.7608 244.607 52.1952 246.684 52.0949C262.214 51.3622 264.409 30.5964 251.372 26.6463Z" fill="#F58221"/>
<path fill-rule="evenodd" clip-rule="evenodd" d="M244.999 30.8015C246.318 29.448 247.726 28.1549 249.96 26.3016C247.28 25.7754 244.443 26.5938 242.299 29.2362C242.286 29.2547 242.266 29.2777 242.25 29.2985C242.906 29.962 243.637 30.672 244.403 31.3643C244.586 31.1594 244.786 30.9687 244.999 30.8015Z" fill="#F25921"/>
<path fill-rule="evenodd" clip-rule="evenodd" d="M244.409 31.3643C243.629 30.6677 242.895 29.9504 242.237 29.2808L242.247 29.2954C240.889 30.9745 240.545 33.3586 241.066 35.4524C241.897 34.2892 243.319 32.5213 244.189 31.6376C244.256 31.5372 244.33 31.4511 244.409 31.3643Z" fill="#F25921"/>
<path fill-rule="evenodd" clip-rule="evenodd" d="M252.065 34.2357C252.07 34.622 252.021 35.0149 251.923 35.4043H251.918V35.4131C251.294 37.7549 248.901 39.1496 246.571 38.5226H246.567H246.563C244.229 37.8937 242.843 35.4758 243.466 33.1305C243.611 32.5727 243.862 32.0764 244.184 31.6401C243.317 32.5243 241.897 34.2895 241.066 35.4523V35.45L241.062 35.4523L241.066 35.4554L241.068 35.45C241.74 38.4461 245.103 40.836 248.343 39.84C251.219 38.9566 252.027 35.7772 252.055 34.7662C252.06 34.9972 252.042 35.2693 252.006 35.5657C252.096 34.9568 252.087 34.4813 252.065 34.2357Z" fill="#F58221"/>
<path fill-rule="evenodd" clip-rule="evenodd" d="M59.1197 34.3869C64.6452 34.3869 67.5268 37.1294 67.5268 42.2077V44.5441C67.5268 49.7234 64.3742 52.3641 59.4587 52.3641C58.1366 52.3641 56.9502 52.161 55.8991 51.7887V58.458C55.8991 58.7966 55.6958 59 55.3568 59H52.3399C52.0009 59 51.7976 58.7966 51.7976 58.458V36.5206C51.7976 36.2155 51.9329 36.0124 52.2042 35.9107C54.6451 34.8951 57.0179 34.3869 59.1197 34.3869ZM206.747 34.3872C211.594 34.3872 214.781 37.0617 214.781 42.3435V44.5102C214.781 49.7916 211.527 52.4657 206.747 52.4657C201.899 52.4657 198.713 49.7916 198.713 44.5102V42.3435C198.713 37.0617 201.967 34.3872 206.747 34.3872ZM10.2038 29.1397C12.7123 29.1397 15.0513 30.0202 16.8142 31.7804C16.9498 31.9159 17.0175 32.0513 17.0175 32.2206C17.0175 32.3561 16.9498 32.4916 16.8142 32.6605L15.6616 34.015C15.5259 34.1843 15.3564 34.2522 15.2208 34.2522C15.0851 34.2522 14.9498 34.218 14.8141 34.1163C13.3222 32.9318 11.8987 32.3219 10.0339 32.3219C6.16955 32.3219 4.16953 34.3197 4.16953 38.822V42.7834C4.16953 47.151 6.16955 49.2839 9.55967 49.2839C12.4752 49.2839 14.2715 48.1324 14.2715 45.0852V43.054H10.5428C10.1362 43.054 9.89864 42.8168 9.89864 42.4111V40.5488C9.89864 40.1427 10.1362 39.9055 10.5428 39.9055H17.6278C18.0344 39.9055 18.2715 40.1427 18.2715 40.5488V44.6116C18.2715 49.6899 14.7123 52.4658 9.52546 52.4658C3.5254 52.4658 0 48.9787 0 42.2415V39.4319C0 32.6605 3.79673 29.1397 10.2038 29.1397ZM36.6107 34.793C36.95 34.793 37.1533 34.9964 37.1533 35.3353V45.2207C37.1533 48.6068 38.4074 49.4527 40.7126 49.4527C42.0688 49.4527 43.3229 49.351 44.1703 49.148V35.3353C44.1703 34.9964 44.3736 34.793 44.713 34.793H47.7299C48.0689 34.793 48.2722 34.9964 48.2722 35.3353V50.5701C48.2722 50.8744 48.1369 51.0779 47.8652 51.1792C46.0009 51.8904 42.9163 52.4658 40.4416 52.4658C35.3908 52.4658 33.0515 49.8926 33.0515 45.1532V35.3353C33.0515 34.9964 33.2548 34.793 33.5941 34.793H36.6107ZM78.0009 34.3872C82.8488 34.3872 86.0352 37.0617 86.0352 42.3435V44.5102C86.0352 49.7916 82.7807 52.4657 78.0009 52.4657C73.1534 52.4657 69.967 49.7916 69.967 44.5102V42.3435C69.967 37.0617 73.2215 34.3872 78.0009 34.3872ZM96.8823 29.1395C102.069 29.1395 105.425 31.5434 105.425 34.9963V35.5724C105.425 37.5357 104.307 38.8898 102.849 39.8379C104.883 40.8534 106.51 42.7158 106.51 45.1872V45.8301C106.51 49.8925 103.188 52.4656 97.2555 52.4656C94.408 52.4656 92.272 52.263 89.8991 51.8227C89.5263 51.7548 89.3569 51.518 89.3569 51.1794V30.3244C89.3569 29.9525 89.5263 29.7491 89.8991 29.6815C91.5268 29.3767 94.1025 29.1395 96.8823 29.1395ZM116.984 34.3872C121.832 34.3872 125.018 37.0617 125.018 42.3435V44.5102C125.018 49.7916 121.764 52.4657 116.984 52.4657C112.137 52.4657 108.95 49.7916 108.95 44.5102V42.3435C108.95 37.0617 112.205 34.3872 116.984 34.3872ZM131.493 29.9526C131.73 29.9526 131.866 30.1552 131.866 30.4262V34.7933H136.781C137.12 34.7933 137.323 34.9964 137.323 35.3353V37.2648C137.323 37.6037 137.12 37.8063 136.781 37.8063H131.866V45.8977C131.866 48.7756 132.781 49.4527 134.815 49.4527C135.595 49.4527 136.069 49.3848 136.747 49.2159C136.882 49.1821 136.985 49.1479 137.086 49.1479C137.289 49.1479 137.425 49.2838 137.425 49.5544V51.3484C137.425 51.6532 137.289 51.9241 136.95 52.0255C136.001 52.3302 134.882 52.4657 134.035 52.4657C129.9 52.4657 127.764 50.2653 127.764 46.0336V31.2721C127.764 30.934 127.933 30.7647 128.272 30.6968L131.018 30.0539C131.188 30.0201 131.391 29.9526 131.493 29.9526ZM155.594 34.3873C157.357 34.3873 159.018 35.0305 160.272 36.0461C160.442 36.1816 160.544 36.3505 160.544 36.5205C160.544 36.6553 160.476 36.8249 160.34 36.9942L159.357 38.2128C159.188 38.4162 159.052 38.5172 158.882 38.5172C158.781 38.5172 158.645 38.45 158.51 38.3483C157.764 37.8401 156.781 37.3665 155.526 37.3665C152.272 37.3665 151.391 39.2964 151.391 42.9185V43.9341C151.391 47.5232 152.408 49.4869 155.492 49.4869C156.916 49.4869 158.069 48.9449 158.984 48.3354C159.086 48.2682 159.188 48.2341 159.289 48.2341C159.425 48.2341 159.527 48.3354 159.696 48.5726L160.679 49.9267C160.815 50.0964 160.849 50.2315 160.849 50.3328C160.849 50.5021 160.747 50.6376 160.611 50.7397C159.357 51.6873 157.323 52.4657 155.459 52.4657C150.204 52.4657 147.289 49.825 147.289 44.1037V42.6817C147.289 37.0955 150.577 34.3873 155.594 34.3873ZM168.984 34.3873C173.832 34.3873 176.307 36.7908 176.307 41.8692V50.4346C176.307 50.7731 176.171 51.112 175.764 51.2805C173.764 52.1276 171.527 52.4658 169.222 52.4658C164.848 52.4658 162.34 50.7397 162.34 47.4553V46.7445C162.34 43.6298 164.781 42.0047 169.222 42.0047H172.476V41.5306C172.476 38.7207 171.561 37.4003 168.916 37.4003C167.527 37.4003 166.238 37.8064 165.086 38.4835C164.95 38.5514 164.848 38.5852 164.747 38.5852C164.544 38.5852 164.374 38.4834 164.238 38.3146L163.289 37.028C163.154 36.8587 163.12 36.7232 163.12 36.5877C163.12 36.4185 163.187 36.2488 163.357 36.1479C164.814 35.1657 166.747 34.3873 168.984 34.3873ZM195.12 34.7932C195.459 34.7932 195.662 34.9962 195.662 35.3355V51.5179C195.662 51.856 195.459 52.0599 195.12 52.0599H192.103C191.764 52.0599 191.56 51.856 191.56 51.5179V35.3355C191.56 34.9962 191.764 34.7932 192.103 34.7932H195.12ZM188.645 34.5902C188.95 34.6243 189.12 34.8953 189.12 35.2001V37.0282C189.12 37.3664 188.916 37.5019 188.544 37.5019H187.289C185.933 37.5019 184.679 37.6711 183.866 38.0097V51.5179C183.866 51.8561 183.662 52.0599 183.323 52.0599H180.306C179.967 52.0599 179.764 51.8561 179.764 51.5179V36.6893C179.764 36.3849 179.866 36.1815 180.137 36.046C182.103 35.0642 184.577 34.523 186.849 34.523C187.425 34.523 188.035 34.523 188.645 34.5902ZM143.696 34.7932C144.035 34.7932 144.238 34.9962 144.238 35.3355V51.5179C144.238 51.856 144.035 52.0599 143.696 52.0599H140.679C140.34 52.0599 140.137 51.856 140.137 51.5179V35.3355C140.137 34.9962 140.34 34.7932 140.679 34.7932H143.696ZM30.2722 34.5902C30.5769 34.6243 30.7468 34.8953 30.7468 35.2001V37.0282C30.7468 37.3664 30.5431 37.5019 30.1699 37.5019H28.9159C27.56 37.5019 26.306 37.6711 25.492 38.0097V51.5179C25.492 51.8561 25.2887 52.0599 24.9497 52.0599H21.9327C21.5938 52.0599 21.3905 51.8561 21.3905 51.5179V36.6893C21.3905 36.3849 21.4923 36.1815 21.7633 36.046C23.7295 35.0642 26.2041 34.523 28.4755 34.523C29.0516 34.523 29.6619 34.523 30.2722 34.5902ZM172.476 44.544H169.222C166.95 44.544 166.035 45.3558 166.035 46.7783V47.3202C166.035 48.5726 166.95 49.5882 169.222 49.5882C170.612 49.5882 171.629 49.5545 172.476 49.148V44.544ZM206.747 37.2989C203.933 37.2989 202.815 38.8565 202.815 42.479V44.3743C202.815 48.0644 203.933 49.5544 206.747 49.5544C209.56 49.5544 210.679 47.9968 210.679 44.3743V42.479C210.679 38.7885 209.56 37.2989 206.747 37.2989ZM78.0009 37.2989C75.1873 37.2989 74.0689 38.8565 74.0689 42.479V44.3743C74.0689 48.0644 75.1873 49.5544 78.0009 49.5544C80.8149 49.5544 81.9333 47.9968 81.9333 44.3743V42.479C81.9333 38.7885 80.8149 37.2989 78.0009 37.2989ZM116.984 37.2989C114.171 37.2989 113.052 38.8565 113.052 42.479V44.3743C113.052 48.0644 114.171 49.5544 116.984 49.5544C119.798 49.5544 120.916 47.9968 120.916 44.3743V42.479C120.916 38.7885 119.798 37.2989 116.984 37.2989ZM59.323 37.3324C57.8653 37.3324 56.7469 37.6038 55.8991 37.8744V48.945C56.7469 49.2839 57.9672 49.4186 59.2212 49.4186C62.4418 49.4186 63.4249 47.8281 63.4249 44.3069V42.3436C63.4249 38.7882 62.2723 37.3324 59.323 37.3324ZM98.34 41.9708H93.1874V49.0803C94.3742 49.2158 95.7977 49.2837 97.7301 49.2837C100.815 49.2837 102.476 48.0643 102.476 45.695V45.2885C102.476 43.2236 100.882 41.9708 98.34 41.9708ZM97.2217 32.3222C95.7639 32.3222 94.2385 32.3894 93.1874 32.5252V38.9574H97.8316C100.171 38.9574 101.594 37.7729 101.594 35.8089V35.4028C101.594 33.4729 99.9331 32.3222 97.2217 32.3222ZM142.204 27.8533C143.594 27.8533 144.476 28.6321 144.476 29.9858V30.426C144.476 31.7802 143.594 32.5589 142.204 32.5589C140.814 32.5589 139.899 31.7802 139.899 30.426V29.9858C139.899 28.6321 140.814 27.8533 142.204 27.8533ZM193.628 27.8533C195.018 27.8533 195.899 28.6321 195.899 29.9858V30.426C195.899 31.7802 195.018 32.5589 193.628 32.5589C192.238 32.5589 191.323 31.7802 191.323 30.426V29.9858C191.323 28.6321 192.238 27.8533 193.628 27.8533ZM174.103 28.1582V30.4258C174.103 30.731 173.934 31.1037 173.594 31.1709L166.272 32.4916C165.899 32.5591 165.696 32.3561 165.696 31.9834V30.731C165.696 30.3925 165.933 30.1553 166.272 30.0535L173.561 27.7855C173.866 27.6842 174.103 27.8193 174.103 28.1582Z" fill="white"/>
</g>
<defs>
<clipPath id="clip0">
<rect width="264" height="59" fill="white"/>
</clipPath>
</defs>
</svg>
